<?xml version="1.0" encoding="UTF-8" standalone="no"?>
<!-- Created with Inkscape (http://www.inkscape.org/) -->

<svg
   width="512"
   height="512"
   viewBox="0 0 135.46667 135.46667"
   version="1.1"
   id="svg1"
   inkscape:export-filename="csclub_cmpr.png"
   inkscape:export-xdpi="96"
   inkscape:export-ydpi="96"
   inkscape:version="1.3 (0e150ed6c4, 2023-07-21)"
   sodipodi:docname="csclub_cmpr.svg"
   xmlns:inkscape="http://www.inkscape.org/namespaces/inkscape"
   xmlns:sodipodi="http://sodipodi.sourceforge.net/DTD/sodipodi-0.dtd"
   xmlns="http://www.w3.org/2000/svg"
   xmlns:svg="http://www.w3.org/2000/svg">
  <sodipodi:namedview
     id="namedview1"
     pagecolor="#ffffff"
     bordercolor="#000000"
     borderopacity="0.25"
     inkscape:showpageshadow="2"
     inkscape:pageopacity="0.0"
     inkscape:pagecheckerboard="0"
     inkscape:deskcolor="#d1d1d1"
     inkscape:document-units="mm"
     inkscape:export-bgcolor="#ffffff00"
     inkscape:zoom="1.0242632"
     inkscape:cx="239.68449"
     inkscape:cy="227.96875"
     inkscape:window-width="1920"
     inkscape:window-height="1009"
     inkscape:window-x="-8"
     inkscape:window-y="-8"
     inkscape:window-maximized="1"
     inkscape:current-layer="svg1" />
  <defs
     id="defs1">
    <rect
       x="332.92224"
       y="0"
       width="272.39092"
       height="306.56183"
       id="rect2" />
    <rect
       x="43.49246"
       y="28.994973"
       width="406.61998"
       height="463.22922"
       id="rect1" />
    <rect
       x="43.492458"
       y="28.994972"
       width="406.62"
       height="463.22922"
       id="rect1-0" />
    <rect
       x="43.492458"
       y="28.994972"
       width="406.62"
       height="463.22922"
       id="rect1-04" />
  </defs>
  <g
     inkscape:label="Layer 1 copy"
     inkscape:groupmode="layer"
     id="g9">
    <rect
       style="fill:#000000;fill-opacity:1;stroke-width:0.592"
       id="rect3"
       width="135.46666"
       height="135.46666"
       x="0"
       y="0"
       ry="27.946495" />
    <path
       d="m 41.177317,86.727555 q -3.581879,0 -6.434117,-1.525617 -2.785908,-1.525615 -4.311523,-4.31152 -1.459283,-2.719576 -1.193959,-6.434118 l 0.663314,-9.618009 q 0.132654,-2.122594 -1.193965,-3.382883 -1.32662,-1.260293 -3.449213,-1.260293 h -8.291387 v -9.286353 h 8.291387 q 2.122593,0 3.449213,-1.26029 1.326625,-1.326625 1.193965,-3.382888 L 29.237718,36.24959 q -0.198982,-3.64821 1.260291,-6.301455 1.459283,-2.719575 4.245191,-4.178858 2.785904,-1.459282 6.434117,-1.459282 h 5.638141 v 9.286352 h -3.648207 q -1.857275,0 -2.984902,0.928635 -1.12763,0.928635 -0.994965,3.051231 l 0.663311,10.015993 q 0.198982,3.051234 -1.857271,5.173826 -1.989933,2.056265 -5.571815,2.719576 3.581882,0.596981 5.571815,2.719574 2.056265,2.122597 1.857271,5.306486 l -0.663311,9.949668 q -0.06635,1.790937 1.061297,2.918565 1.127627,1.061302 2.91857,1.061302 h 3.648207 v 9.286352 z"
       id="path6"
       style="font-weight:800;font-size:18.6667px;line-height:0.9;font-family:'JetBrains Mono';-inkscape-font-specification:'JetBrains Mono, Ultra-Bold';letter-spacing:0px;word-spacing:0px;white-space:pre;fill:#ffffff;stroke-width:7.95074" />
    <path
       d="m 63.821621,104.62492 v -9.286341 h 3.648209 c 1.193958,0 2.166813,-0.353768 2.918567,-1.061306 0.795975,-0.751746 1.149741,-1.724599 1.0613,-2.918551 l -0.66331,-9.949671 c -0.132655,-2.122603 0.464323,-3.891438 1.790936,-5.306504 1.370843,-1.415062 3.250225,-2.321586 5.638145,-2.719568 -2.38792,-0.442196 -4.267302,-1.348718 -5.638145,-2.719569 -1.326623,-1.415065 -1.923601,-3.139673 -1.790936,-5.173823 l 0.66331,-10.015996 c 0.08844,-1.415065 -0.243219,-2.432143 -0.994967,-3.051232 -0.707532,-0.619091 -1.702499,-0.928637 -2.9849,-0.928637 h -3.648209 v -9.286349 h 5.638142 c 2.432141,0 4.576845,0.486427 6.434114,1.459279 1.857274,0.972859 3.272338,2.365811 4.245192,4.178856 1.017076,1.768833 1.437174,3.869317 1.260293,6.301455 L 80.73605,64.162968 c -0.08844,1.370844 0.309548,2.498474 1.193957,3.382887 0.928637,0.840194 2.078378,1.260291 3.449221,1.260291 h 8.291385 v 9.286351 h -8.291385 c -1.370843,0 -2.520584,0.420096 -3.449221,1.260286 -0.884414,0.8402 -1.282401,1.967824 -1.193957,3.38289 l 0.663312,9.618003 c 0.176891,2.476346 -0.243207,4.621058 -1.260293,6.43412 -0.972854,1.857264 -2.387918,3.294444 -4.245192,4.311524 -1.857269,1.01707 -4.001973,1.5256 -6.434114,1.5256 z M 111.94217,72.05636 c -1.72461,0 -3.16178,-0.552761 -4.31152,-1.658283 -1.10552,-1.149737 -1.65828,-2.586908 -1.65828,-4.311516 0,-1.724613 0.55276,-3.139674 1.65828,-4.245186 1.14974,-1.149743 2.58691,-1.724613 4.31152,-1.724613 h 1.32662 c 1.72462,0 3.13968,0.57487 4.24519,1.724613 1.14974,1.105512 1.72462,2.520573 1.72462,4.245186 0,1.724608 -0.57488,3.161779 -1.72462,4.311516 -1.10551,1.105522 -2.52057,1.658283 -4.24519,1.658283 z m -9.61801,35.8188 5.30649,-20.628983 h 11.9396 l -8.62304,20.628983 z"
       id="path9"
       style="font-weight:800;font-size:18.6667px;line-height:0.9;font-family:'JetBrains Mono';-inkscape-font-specification:'JetBrains Mono, Ultra-Bold';letter-spacing:0px;word-spacing:0px;white-space:pre;fill:#ffffff;stroke-width:7.95074"
       sodipodi:nodetypes="ccscccccccccsccssccccsccsccccsscscsssscssssccccc" />
  </g>
</svg>

